{
  "accessors": [
    {
      "bufferView": 2,
      "componentType": 5126,
      "count": 648,
      "max": [
        25.24753189086914,
        50.079898834228516,
        4.411749362945557
      ],
      "min": [
        -25.24753189086914,
        0.07990002632141113,
        -45.58824920654297
      ],
      "type": "VEC3"
    },
    {
      "bufferView": 2,
      "byteOffset": 7776,
      "componentType": 5126,
      "count": 648,
      "max": [
        1.0,
        0.9238797426223755,
        0.9238798022270203
      ],
      "min": [
        -1.0,
        -0.9238798022270203,
        -0.9238798022270203
      ],
      "type": "VEC3"
    },
    {
      "bufferView": 1,
      "componentType": 5126,
      "count": 648,
      "max": [
        0.984059751033783,
        0.9826221466064453
      ],
      "min": [
        0.0020371079444885254,
        0.0020321065094321966
      ],
      "type": "VEC2"
    },
    {
      "bufferView": 0,
      "componentType": 5125,
      "count": 1824,
      "type": "SCALAR"
    },
    {
      "bufferView": 2,
      "byteOffset": 15552,
      "componentType": 5126,
      "count": 80,
      "max": [
        16.2131404876709,
        74.13652801513672,
        35.41053009033203
      ],
      "min": [
        -16.2131404876709,
        62.435035705566406,
        25.0
      ],
      "type": "VEC3"
    },
    {
      "bufferView": 2,
      "byteOffset": 16512,
      "componentType": 5126,
      "count": 80,
      "max": [
        1.0,
        1.0,
        1.0
      ],
      "min": [
        -1.0,
        -1.0,
        -1.0
      ],
      "type": "VEC3"
    },
    {
      "bufferView": 1,
      "byteOffset": 5184,
      "componentType": 5126,
      "count": 80,
      "max": [
        0.787226140499115,
        0.8615824580192566
      ],
      "min": [
        0.6607093214988708,
        0.1750628799200058
      ],
      "type": "VEC2"
    },
    {
      "bufferView": 0,
      "byteOffset": 7296,
      "componentType": 5125,
      "count": 180,
      "type": "SCALAR"
    },
    {
      "bufferView": 2,
      "byteOffset": 17472,
      "componentType": 5126,
      "count": 466,
      "max": [
        24.88188362121582,
        152.0929718017578,
        31.10296630859375
      ],
      "min": [
        -24.88188362121582,
        0.0,
        -31.102609634399414
      ],
      "type": "VEC3"
    },
    {
      "bufferView": 2,
      "byteOffset": 23064,
      "componentType": 5126,
      "count": 466,
      "max": [
        1.0,
        1.0,
        1.0
      ],
      "min": [
        -1.0,
        -1.0,
        -1.0
      ],
      "type": "VEC3"
    },
    {
      "bufferView": 1,
      "byteOffset": 5824,
      "componentType": 5126,
      "count": 466,
      "max": [
        0.9979690313339233,
        0.9955614805221558
      ],
      "min": [
        0.0020343251526355743,
        0.0020335176959633827
      ],
      "type": "VEC2"
    },
    {
      "bufferView": 0,
      "byteOffset": 8016,
      "componentType": 5125,
      "count": 1002,
      "type": "SCALAR"
    },
    {
      "bufferView": 2,
      "byteOffset": 28656,
      "componentType": 5126,
      "count": 16,
      "max": [
        19.683143615722656,
        137.13247680664063,
        24.60392951965332
      ],
      "min": [
        -19.683143615722656,
        81.97256469726563,
        -24.60392951965332
      ],
      "type": "VEC3"
    },
    {
      "bufferView": 2,
      "byteOffset": 28848,
      "componentType": 5126,
      "count": 16,
      "max": [
        1.0,
        0.0,
        1.0
      ],
      "min": [
        -1.0,
        0.0,
        -1.0
      ],
      "type": "VEC3"
    },
    {
      "bufferView": 1,
      "byteOffset": 9552,
      "componentType": 5126,
      "count": 16,
      "max": [
        0.9915499687194824,
        0.99165940284729
      ],
      "min": [
        0.005133867263793945,
        0.00822216272354126
      ],
      "type": "VEC2"
    },
    {
      "bufferView": 0,
      "byteOffset": 12024,
      "componentType": 5125,
      "count": 24,
      "type": "SCALAR"
    },
    {
      "bufferView": 2,
      "byteOffset": 29040,
      "componentType": 5126,
      "count": 318,
      "max": [
        28.80329704284668,
        143.92153930664063,
        20.550384521484375
      ],
      "min": [
        -28.80329704284668,
        136.89529418945313,
        -19.9600887298584
      ],
      "type": "VEC3"
    },
    {
      "bufferView": 2,
      "byteOffset": 32856,
      "componentType": 5126,
      "count": 318,
      "max": [
        0.9397707581520081,
        0.8406173586845398,
        0.9463285207748413
      ],
      "min": [
        -0.9397706985473633,
        -0.9950976967811584,
        -0.9555718898773193
      ],
      "type": "VEC3"
    },
    {
      "bufferView": 1,
      "byteOffset": 9680,
      "componentType": 5126,
      "count": 318,
      "max": [
        0.8416880965232849,
        0.8558646440505981
      ],
      "min": [
        0.05254703760147095,
        0.47263213992118835
      ],
      "type": "VEC2"
    },
    {
      "bufferView": 0,
      "byteOffset": 12120,
      "componentType": 5125,
      "count": 810,
      "type": "SCALAR"
    }
  ],
  "asset": {
    "extras": {
      "author": "Screwdriver1337 (https://sketchfab.com/screwdriver1337)",
      "license": "CC-BY-4.0 (http://creativecommons.org/licenses/by/4.0/)",
      "source": "https://sketchfab.com/3d-models/stylized-popcorn-machine-lowpoly-5fe0267016434fa7b0dd57434268a5a3",
      "title": "Stylized Popcorn Machine (Lowpoly)"
    },
    "generator": "Sketchfab-15.34.0",
    "version": "2.0"
  },
  "bufferViews": [
    {
      "buffer": 0,
      "byteLength": 15360,
      "name": "floatBufferViews",
      "target": 34963
    },
    {
      "buffer": 0,
      "byteLength": 12224,
      "byteOffset": 15360,
      "byteStride": 8,
      "name": "floatBufferViews",
      "target": 34962
    },
    {
      "buffer": 0,
      "byteLength": 36672,
      "byteOffset": 27584,
      "byteStride": 12,
      "name": "floatBufferViews",
      "target": 34962
    }
  ],
  "buffers": [
    {
      "byteLength": 64256,
      "uri": "scene.bin"
    }
  ],
  "images": [
    {
      "uri": "textures/M_PopcornMachine_baseColor.png"
    },
    {
      "uri": "textures/M_PopcornMachine_Glass_baseColor.png"
    }
  ],
  "materials": [
    {
      "doubleSided": true,
      "name": "M_PopcornMachine",
      "pbrMetallicRoughness": {
        "baseColorTexture": {
          "index": 0
        },
        "metallicFactor": 0.0,
        "roughnessFactor": 0.5860014985801268
      }
    },
    {
      "alphaMode": "BLEND",
      "doubleSided": true,
      "name": "M_PopcornMachine_Glass",
      "pbrMetallicRoughness": {
        "baseColorTexture": {
          "index": 1
        },
        "metallicFactor": 0.0,
        "roughnessFactor": 0.08657763337677955
      }
    }
  ],
  "meshes": [
    {
      "name": "SM_Cart_03_M_PopcornMachine_0",
      "primitives": [
        {
          "attributes": {
            "NORMAL": 1,
            "POSITION": 0,
            "TEXCOORD_0": 2
          },
          "indices": 3,
          "material": 0,
          "mode": 4
        }
      ]
    },
    {
      "name": "SM_Cart_02_M_PopcornMachine_0",
      "primitives": [
        {
          "attributes": {
            "NORMAL": 5,
            "POSITION": 4,
            "TEXCOORD_0": 6
          },
          "indices": 7,
          "material": 0,
          "mode": 4
        }
      ]
    },
    {
      "name": "SM_Cart_01_M_PopcornMachine_0",
      "primitives": [
        {
          "attributes": {
            "NORMAL": 9,
            "POSITION": 8,
            "TEXCOORD_0": 10
          },
          "indices": 11,
          "material": 0,
          "mode": 4
        }
      ]
    },
    {
      "name": "SM_Cart_05_M_PopcornMachine_Glass_0",
      "primitives": [
        {
          "attributes": {
            "NORMAL": 13,
            "POSITION": 12,
            "TEXCOORD_0": 14
          },
          "indices": 15,
          "material": 1,
          "mode": 4
        }
      ]
    },
    {
      "name": "SM_Cart_04_M_PopcornMachine_0",
      "primitives": [
        {
          "attributes": {
            "NORMAL": 17,
            "POSITION": 16,
            "TEXCOORD_0": 18
          },
          "indices": 19,
          "material": 0,
          "mode": 4
        }
      ]
    }
  ],
  "nodes": [
    {
      "children": [
        1
      ],
      "matrix": [
        1.0,
        0.0,
        0.0,
        0.0,
        0.0,
        2.220446049250313e-16,
        -1.0,
        0.0,
        0.0,
        1.0,
        2.220446049250313e-16,
        0.0,
        0.0,
        0.0,
        0.0,
        1.0
      ],
      "name": "Sketchfab_model"
    },
    {
      "children": [
        2
      ],
      "matrix": [
        0.009999999776482582,
        0.0,
        0.0,
        0.0,
        0.0,
        0.0,
        0.009999999776482582,
        0.0,
        0.0,
        -0.009999999776482582,
        0.0,
        0.0,
        0.0,
        0.0,
        0.0,
        1.0
      ],
      "name": "a39e4420dbd94218b57709197f51b531.fbx"
    },
    {
      "children": [
        3,
        5,
        7,
        9,
        11
      ],
      "name": "RootNode"
    },
    {
      "children": [
        4
      ],
      "name": "SM_Cart_03"
    },
    {
      "mesh": 0,
      "name": "SM_Cart_03_M_PopcornMachine_0"
    },
    {
      "children": [
        6
      ],
      "name": "SM_Cart_02"
    },
    {
      "mesh": 1,
      "name": "SM_Cart_02_M_PopcornMachine_0"
    },
    {
      "children": [
        8
      ],
      "name": "SM_Cart_01"
    },
    {
      "mesh": 2,
      "name": "SM_Cart_01_M_PopcornMachine_0"
    },
    {
      "children": [
        10
      ],
      "name": "SM_Cart_05"
    },
    {
      "mesh": 3,
      "name": "SM_Cart_05_M_PopcornMachine_Glass_0"
    },
    {
      "children": [
        12
      ],
      "name": "SM_Cart_04"
    },
    {
      "mesh": 4,
      "name": "SM_Cart_04_M_PopcornMachine_0"
    }
  ],
  "samplers": [
    {
      "magFilter": 9729,
      "minFilter": 9987,
      "wrapS": 10497,
      "wrapT": 10497
    }
  ],
  "scene": 0,
  "scenes": [
    {
      "name": "Sketchfab_Scene",
      "nodes": [
        0
      ]
    }
  ],
  "textures": [
    {
      "sampler": 0,
      "source": 0
    },
    {
      "sampler": 0,
      "source": 1
    }
  ]
}
